<svg width="1024" height="1024" viewBox="0 0 1024 1024" xmlns="http://www.w3.org/2000/svg" role="img" aria-label="Bunsho app icon">
  <defs>
    <!-- Dark charcoal / near-black background, faintly lighter at the top -->
    <linearGradient id="bg" x1="512" y1="100" x2="512" y2="924" gradientUnits="userSpaceOnUse">
      <stop offset="0" stop-color="#33333A"/>
      <stop offset="0.5" stop-color="#1C1C21"/>
      <stop offset="1" stop-color="#0A0A0C"/>
    </linearGradient>
    <!-- Soft top sheen -->
    <radialGradient id="sheen" cx="512" cy="210" r="470" gradientUnits="userSpaceOnUse">
      <stop offset="0" stop-color="#ffffff" stop-opacity="0.14"/>
      <stop offset="0.55" stop-color="#ffffff" stop-opacity="0.04"/>
      <stop offset="1" stop-color="#ffffff" stop-opacity="0"/>
    </radialGradient>
    <!-- Warm ink: aged bone-white with a subtle top-to-bottom fall-off -->
    <linearGradient id="ink" x1="512" y1="280" x2="512" y2="770" gradientUnits="userSpaceOnUse">
      <stop offset="0" stop-color="#F5EFE0"/>
      <stop offset="1" stop-color="#E3D8C2"/>
    </linearGradient>
    <filter id="inkGlow" x="-20%" y="-20%" width="140%" height="140%">
      <feDropShadow dx="0" dy="6" stdDeviation="10" flood-color="#000000" flood-opacity="0.55"/>
    </filter>
    <clipPath id="squircle">
      <path d="M 924.00,512.00 L 923.94,607.95 L 923.60,654.01 L 922.94,684.36 L 921.96,708.17 L 920.67,728.15 L 919.06,745.54 L 917.13,761.02 L 914.87,775.00 L 912.28,787.76 L 909.36,799.49 L 906.11,810.34 L 902.50,820.41 L 898.55,829.78 L 894.23,838.53 L 889.54,846.70 L 884.48,854.33 L 879.01,861.46 L 873.14,868.13 L 866.83,874.34 L 860.08,880.14 L 852.85,885.52 L 845.11,890.51 L 836.83,895.12 L 827.96,899.37 L 818.45,903.25 L 808.23,906.79 L 797.22,909.98 L 785.29,912.83 L 772.31,915.35 L 758.06,917.54 L 742.23,919.41 L 724.39,920.96 L 703.77,922.18 L 678.95,923.10 L 646.64,923.69 L 607.95,923.94 L 512.00,924.00 L 416.05,923.94 L 369.99,923.60 L 339.64,922.94 L 315.83,921.96 L 295.85,920.67 L 278.46,919.06 L 262.98,917.13 L 249.00,914.87 L 236.24,912.28 L 224.51,909.36 L 213.66,906.11 L 203.59,902.50 L 194.22,898.55 L 185.47,894.23 L 177.30,889.54 L 169.67,884.48 L 162.54,879.01 L 155.87,873.14 L 149.66,866.83 L 143.86,860.08 L 138.48,852.85 L 133.49,845.11 L 128.88,836.83 L 124.63,827.96 L 120.75,818.45 L 117.21,808.23 L 114.02,797.22 L 111.17,785.29 L 108.65,772.31 L 106.46,758.06 L 104.59,742.23 L 103.04,724.39 L 101.82,703.77 L 100.90,678.95 L 100.31,646.64 L 100.06,607.95 L 100.00,512.00 L 100.06,416.05 L 100.40,369.99 L 101.06,339.64 L 102.04,315.83 L 103.33,295.85 L 104.94,278.46 L 106.87,262.98 L 109.13,249.00 L 111.72,236.24 L 114.64,224.51 L 117.89,213.66 L 121.50,203.59 L 125.45,194.22 L 129.77,185.47 L 134.46,177.30 L 139.52,169.67 L 144.99,162.54 L 150.86,155.87 L 157.17,149.66 L 163.92,143.86 L 171.15,138.48 L 178.89,133.49 L 187.17,128.88 L 196.04,124.63 L 205.55,120.75 L 215.77,117.21 L 226.78,114.02 L 238.71,111.17 L 251.69,108.65 L 265.94,106.46 L 281.77,104.59 L 299.61,103.04 L 320.23,101.82 L 345.05,100.90 L 377.36,100.31 L 416.05,100.06 L 512.00,100.00 L 607.95,100.06 L 654.01,100.40 L 684.36,101.06 L 708.17,102.04 L 728.15,103.33 L 745.54,104.94 L 761.02,106.87 L 775.00,109.13 L 787.76,111.72 L 799.49,114.64 L 810.34,117.89 L 820.41,121.50 L 829.78,125.45 L 838.53,129.77 L 846.70,134.46 L 854.33,139.52 L 861.46,144.99 L 868.13,150.86 L 874.34,157.17 L 880.14,163.92 L 885.52,171.15 L 890.51,178.89 L 895.12,187.17 L 899.37,196.04 L 903.25,205.55 L 906.79,215.77 L 909.98,226.78 L 912.83,238.71 L 915.35,251.69 L 917.54,265.94 L 919.41,281.77 L 920.96,299.61 L 922.18,320.23 L 923.10,345.05 L 923.69,377.36 L 923.94,416.05 L 924.00,512.00 Z"/>
    </clipPath>
  </defs>

  <!-- Base squircle -->
  <path d="M 924.00,512.00 L 923.94,607.95 L 923.60,654.01 L 922.94,684.36 L 921.96,708.17 L 920.67,728.15 L 919.06,745.54 L 917.13,761.02 L 914.87,775.00 L 912.28,787.76 L 909.36,799.49 L 906.11,810.34 L 902.50,820.41 L 898.55,829.78 L 894.23,838.53 L 889.54,846.70 L 884.48,854.33 L 879.01,861.46 L 873.14,868.13 L 866.83,874.34 L 860.08,880.14 L 852.85,885.52 L 845.11,890.51 L 836.83,895.12 L 827.96,899.37 L 818.45,903.25 L 808.23,906.79 L 797.22,909.98 L 785.29,912.83 L 772.31,915.35 L 758.06,917.54 L 742.23,919.41 L 724.39,920.96 L 703.77,922.18 L 678.95,923.10 L 646.64,923.69 L 607.95,923.94 L 512.00,924.00 L 416.05,923.94 L 369.99,923.60 L 339.64,922.94 L 315.83,921.96 L 295.85,920.67 L 278.46,919.06 L 262.98,917.13 L 249.00,914.87 L 236.24,912.28 L 224.51,909.36 L 213.66,906.11 L 203.59,902.50 L 194.22,898.55 L 185.47,894.23 L 177.30,889.54 L 169.67,884.48 L 162.54,879.01 L 155.87,873.14 L 149.66,866.83 L 143.86,860.08 L 138.48,852.85 L 133.49,845.11 L 128.88,836.83 L 124.63,827.96 L 120.75,818.45 L 117.21,808.23 L 114.02,797.22 L 111.17,785.29 L 108.65,772.31 L 106.46,758.06 L 104.59,742.23 L 103.04,724.39 L 101.82,703.77 L 100.90,678.95 L 100.31,646.64 L 100.06,607.95 L 100.00,512.00 L 100.06,416.05 L 100.40,369.99 L 101.06,339.64 L 102.04,315.83 L 103.33,295.85 L 104.94,278.46 L 106.87,262.98 L 109.13,249.00 L 111.72,236.24 L 114.64,224.51 L 117.89,213.66 L 121.50,203.59 L 125.45,194.22 L 129.77,185.47 L 134.46,177.30 L 139.52,169.67 L 144.99,162.54 L 150.86,155.87 L 157.17,149.66 L 163.92,143.86 L 171.15,138.48 L 178.89,133.49 L 187.17,128.88 L 196.04,124.63 L 205.55,120.75 L 215.77,117.21 L 226.78,114.02 L 238.71,111.17 L 251.69,108.65 L 265.94,106.46 L 281.77,104.59 L 299.61,103.04 L 320.23,101.82 L 345.05,100.90 L 377.36,100.31 L 416.05,100.06 L 512.00,100.00 L 607.95,100.06 L 654.01,100.40 L 684.36,101.06 L 708.17,102.04 L 728.15,103.33 L 745.54,104.94 L 761.02,106.87 L 775.00,109.13 L 787.76,111.72 L 799.49,114.64 L 810.34,117.89 L 820.41,121.50 L 829.78,125.45 L 838.53,129.77 L 846.70,134.46 L 854.33,139.52 L 861.46,144.99 L 868.13,150.86 L 874.34,157.17 L 880.14,163.92 L 885.52,171.15 L 890.51,178.89 L 895.12,187.17 L 899.37,196.04 L 903.25,205.55 L 906.79,215.77 L 909.98,226.78 L 912.83,238.71 L 915.35,251.69 L 917.54,265.94 L 919.41,281.77 L 920.96,299.61 L 922.18,320.23 L 923.10,345.05 L 923.69,377.36 L 923.94,416.05 L 924.00,512.00 Z" fill="url(#bg)"/>

  <g clip-path="url(#squircle)">
    <rect x="100" y="100" width="824" height="824" fill="url(#sheen)"/>
    <!-- top inner edge highlight -->
    <path d="M 512.00,100.00 L 607.95,100.06 L 684.36,101.06 L 745.54,104.94 L 799.49,114.64 L 846.70,134.46 L 885.52,171.15 L 909.98,226.78" fill="none" stroke="#ffffff" stroke-opacity="0.14" stroke-width="3"/>
    <path d="M 512.00,100.00 L 416.05,100.06 L 339.64,101.06 L 278.46,104.94 L 224.51,114.64 L 177.30,134.46 L 138.48,171.15 L 114.02,226.78" fill="none" stroke="#ffffff" stroke-opacity="0.14" stroke-width="3"/>
  </g>

  <!-- 文 in a brushed, calligraphic (毛筆 / kaisho) style: filled strokes with
       tapered sweeps, brush entries, and triangular stroke-endings (uroko). -->
  <g filter="url(#inkGlow)" fill="url(#ink)">
    <!-- 点 : top dot, a short slanting brush dab -->
    <path d="M 514,290
             Q 526,300 519,322
             Q 508,350 482,360
             Q 493,340 495,314
             Q 500,296 514,290 Z"/>

    <!-- 横画 : horizontal, brush entry at left, swept body, triangular foot (uroko) at right -->
    <path d="M 314,392
             Q 310,376 330,368
             Q 500,354 682,350
             L 706,344
             Q 716,356 708,374
             L 700,392
             Q 690,382 678,376
             Q 500,386 336,398
             Q 318,400 314,392 Z"/>

    <!-- 左払い : left-falling sweep, thick at the top, tapering to a fine point bottom-left -->
    <path d="M 566,430
             Q 572,448 550,474
             Q 466,592 356,704
             Q 336,726 320,734
             Q 332,712 350,684
             Q 452,560 526,448
             Q 542,428 566,430 Z"/>

    <!-- 右払い : right-falling sweep, thin start, swelling body, broad flat foot (捺) at bottom-right -->
    <path d="M 466,430
             Q 480,426 496,446
             Q 596,586 664,682
             Q 686,700 710,704
             Q 704,724 682,724
             Q 654,716 630,694
             Q 548,592 452,462
             Q 452,436 466,430 Z"/>
  </g>
</svg>
